<svg width="18" height="14" viewBox="0 0 18 14" fill="none" xmlns="http://www.w3.org/2000/svg">
<g clip-path="url(#clip0_6524_27145)">
<path d="M0 0H18V13.5H0V0Z" fill="#012169"/>
<path d="M2.10938 0L8.97188 5.09062L15.8062 0H18V1.74375L11.25 6.77812L18 11.7844V13.5H15.75L9 8.46562L2.27813 13.5H0V11.8125L6.72187 6.80625L0 1.8V0H2.10938Z" fill="white"/>
<path d="M11.925 7.90312L18 12.375V13.5L10.3781 7.90312H11.925ZM6.75 8.46562L6.91875 9.45L1.51875 13.5H0L6.75 8.46562ZM18 0V0.084375L10.9969 5.37187L11.0531 4.13438L16.5938 0H18ZM0 0L6.72187 4.95H5.03437L0 1.18125V0Z" fill="#C8102E"/>
<path d="M6.77812 0V13.5H11.2781V0H6.77812ZM0 4.5V9H18V4.5H0Z" fill="white"/>
<path d="M0 5.42812V8.12813H18V5.42812H0ZM7.67812 0V13.5H10.3781V0H7.67812Z" fill="#C8102E"/>
</g>
<defs>
<clipPath id="clip0_6524_27145">
<rect width="18" height="13.5" fill="white"/>
</clipPath>
</defs>
</svg>
