<svg width="18" height="14" viewBox="0 0 18 14" fill="none" xmlns="http://www.w3.org/2000/svg">
<g clip-path="url(#clip0_6524_27092)">
<path fill-rule="evenodd" clip-rule="evenodd" d="M0 0H18V1.49906H0V0Z" fill="#0D5EAF"/>
<path fill-rule="evenodd" clip-rule="evenodd" d="M0 1.49902H18V3.0009H0V1.49902Z" fill="white"/>
<path fill-rule="evenodd" clip-rule="evenodd" d="M0 3.00098H18V4.50004H0V3.00098Z" fill="#0D5EAF"/>
<path fill-rule="evenodd" clip-rule="evenodd" d="M0 4.5H18V5.99906H0V4.5Z" fill="white"/>
<path d="M0 0H7.50094V7.50094H0V0Z" fill="#0D5EAF"/>
<path fill-rule="evenodd" clip-rule="evenodd" d="M0 5.99902H18V7.5009H0V5.99902Z" fill="#0D5EAF"/>
<path fill-rule="evenodd" clip-rule="evenodd" d="M0 7.50098H18V9.00004H0V7.50098Z" fill="white"/>
<path fill-rule="evenodd" clip-rule="evenodd" d="M0 9H18V10.4991H0V9Z" fill="#0D5EAF"/>
<path fill-rule="evenodd" clip-rule="evenodd" d="M0 10.499H18V12.0009H0V10.499Z" fill="white"/>
<path fill-rule="evenodd" clip-rule="evenodd" d="M3 0H4.49906V7.50094H3V0Z" fill="white"/>
<path fill-rule="evenodd" clip-rule="evenodd" d="M0 3.00098H7.50094V4.50004H0V3.00098Z" fill="white"/>
<path d="M0 12.001H18V13.5H0V12.001Z" fill="#0D5EAF"/>
</g>
<defs>
<clipPath id="clip0_6524_27092">
<rect width="18" height="13.5" fill="white"/>
</clipPath>
</defs>
</svg>
